<svg width="685" height="194" viewBox="0 0 685 194" fill="none" xmlns="http://www.w3.org/2000/svg">
<path fill-rule="evenodd" clip-rule="evenodd" d="M54.2934 191H0.68103L64.0513 3.18184L126.864 3.18184L190.234 191H136.624L124.638 152.825L66.2541 152.825L54.2934 191ZM52.0895 188H4.8594L66.2053 6.18184L124.71 6.18184L186.056 188H138.826L126.84 149.825L64.0503 149.825L52.0895 188ZM74.509 116.445H116.36L96.1236 51.9915H94.7031L74.509 116.445ZM78.5927 113.445H112.274L95.4156 59.7515L78.5927 113.445ZM202.632 3.18184L262.065 3.18184L307.283 113.444L352.501 3.18184L411.934 3.18184L411.934 191H363.143L363.143 88.2519L322.995 189.846H291.567L251.423 87.6914L251.423 191H202.632L202.632 3.18184ZM248.423 75.6953H249.932L293.611 186.846H320.955L364.634 76.3168H366.143L366.143 188H408.934L408.934 6.18184L354.513 6.18184L308.348 118.753H306.218L260.053 6.18184L205.632 6.18184L205.632 188H248.423L248.423 75.6953ZM537.001 3.18184V191H487.056L487.056 3.18184L537.001 3.18184ZM592.768 135.336V128.696C592.768 118.509 593.603 110.185 595.363 103.836L595.367 103.822L595.371 103.809C597.177 97.5169 599.845 92.285 603.474 88.2563C606.931 84.3609 611.11 80.8472 615.981 77.7026L615.99 77.6965L616 77.6904C619.636 75.3819 622.841 73.0611 625.626 70.7312C628.371 68.4243 630.477 66.0062 631.997 63.4906C633.406 61.1585 634.139 58.4782 634.139 55.3651C634.139 52.368 633.435 49.8521 632.106 47.717C630.755 45.5458 628.909 43.8814 626.498 42.7006L626.465 42.6843L626.432 42.6672C624.056 41.4301 621.372 40.7869 618.318 40.7869C615.307 40.7869 612.5 41.4703 609.855 42.842C607.306 44.1939 605.198 46.1173 603.515 48.6655C601.99 51.0029 601.129 53.9425 601.076 57.6274L601.034 60.5845L554.195 60.5845L554.239 57.5417C554.423 44.6804 557.399 33.8682 563.394 25.3219L563.398 25.3158L563.403 25.3097C569.362 16.9048 577.246 10.6926 586.986 6.69483C596.622 2.6809 607.197 0.696045 618.673 0.696045C631.173 0.696045 642.392 2.6377 652.278 6.5914C662.264 10.5619 670.228 16.4778 676.043 24.3787C681.928 32.3743 684.795 42.0808 684.795 53.3232C684.795 60.7014 683.554 67.3401 680.99 73.1739C678.465 78.9173 674.927 84.0013 670.392 88.4109C666.001 92.6783 660.865 96.5468 655.006 100.026L654.999 100.03L654.992 100.034C650.714 102.544 647.219 105.126 644.468 107.765C641.86 110.322 639.909 113.229 638.59 116.501L638.587 116.509L638.583 116.517C637.294 119.664 636.588 123.69 636.588 128.696V135.336L592.768 135.336ZM651.166 9.37786C641.696 5.58998 630.866 3.69604 618.673 3.69604C607.546 3.69604 597.366 5.61958 588.134 9.46664C578.901 13.2545 571.473 19.1139 565.85 27.0448C560.741 34.328 557.903 43.5079 557.336 54.5845C557.286 55.5695 557.253 56.5695 557.239 57.5845L598.077 57.5845C598.136 53.4416 599.112 49.92 601.006 47.0199C602.96 44.0606 605.445 41.782 608.464 40.184C611.541 38.586 614.826 37.7869 618.318 37.7869C621.81 37.7869 624.977 38.5268 627.818 40.0064C630.718 41.4269 632.996 43.4688 634.653 46.1321C636.311 48.7955 637.139 51.8731 637.139 55.3651C637.139 58.9754 636.281 62.201 634.565 65.0419C632.848 67.8828 630.51 70.5462 627.551 73.032C624.651 75.4586 621.337 77.8556 617.608 80.223C612.932 83.2415 608.967 86.5855 605.712 90.255C602.456 93.8653 599.971 98.6594 598.254 104.637C596.597 110.615 595.768 118.634 595.768 128.696V132.336L633.588 132.336V128.696C633.588 123.429 634.328 118.99 635.808 115.379C637.287 111.71 639.477 108.455 642.377 105.614C645.336 102.773 649.036 100.05 653.474 97.4461C659.156 94.0725 664.098 90.3438 668.3 86.26C672.562 82.117 675.876 77.3525 678.244 71.9666C680.611 66.5808 681.795 60.3663 681.795 53.3232C681.795 42.6106 679.072 33.5552 673.627 26.157C668.182 18.7588 660.695 13.1657 651.166 9.37786ZM596.85 185.956L596.843 185.949C591.779 180.885 589.246 174.674 589.306 167.493C589.246 160.412 591.792 154.286 596.857 149.288C601.975 144.237 608.206 141.676 615.388 141.676C622.31 141.676 628.401 144.262 633.54 149.264C638.722 154.248 641.404 160.367 641.471 167.464L641.471 167.499L641.471 167.534C641.404 172.319 640.134 176.73 637.649 180.7C635.267 184.598 632.109 187.724 628.2 190.044C624.294 192.398 620.003 193.575 615.388 193.575C608.206 193.575 601.975 191.014 596.857 185.963L596.85 185.956ZM592.306 167.492C592.247 173.884 594.466 179.329 598.964 183.827C603.522 188.326 608.996 190.575 615.388 190.575C619.472 190.575 623.231 189.539 626.663 187.467C630.155 185.396 632.967 182.614 635.097 179.122C637.287 175.63 638.412 171.754 638.471 167.492C638.412 161.219 636.074 155.862 631.457 151.423C626.841 146.925 621.485 144.676 615.388 144.676C608.996 144.676 603.522 146.925 598.964 151.423C594.466 155.862 592.247 161.219 592.306 167.492ZM534.001 6.18184L490.056 6.18184L490.056 188H534.001V6.18184Z" fill="black"/>
</svg>
